<svg width="418.333" height="359.04" viewBox="0 0 313.75 269.28" class="displayed_equation" xmlns="http://www.w3.org/2000/svg">
  <path d="M 123.984375 123.971875 L 2876.132813 123.971875 M 123.984375 582.682812 L 2876.132813 582.682812 M 123.984375 1041.354687 L 2876.132813 1041.354687 M 123.984375 1500.065625 L 2876.132813 1500.065625 M 123.984375 1958.776562 L 2876.132813 1958.776562 M 123.984375 2417.292187 L 2876.132813 2417.292187 M 123.984375 123.971875 L 123.984375 2417.448437 M 582.65625 123.971875 L 582.65625 2417.448437 M 1041.367188 123.971875 L 1041.367188 2417.448437 M 1500.078125 123.971875 L 1500.078125 2417.448437 M 1958.75 123.971875 L 1958.75 2417.448437 M 2417.460938 123.971875 L 2417.460938 2417.448437 M 2875.976563 123.971875 L 2875.976563 2417.448437" transform="matrix(.1 0 0 -.1 0 269.28)" fill="none" stroke-width="3.985" stroke-linejoin="round" stroke="#a5a5a6" stroke-miterlimit="10" />
  <path d="M 123.984375 1041.354687 L 2826.171875 1041.354687" transform="matrix(.1 0 0 -.1 0 269.28)" fill="none" stroke-width="7.97" stroke-linejoin="round" stroke="#000" stroke-miterlimit="10" />
  <path d="M 286.480469 165.144531 L 281.011719 163.078125 L 282.816406 165.144531 L 281.011719 167.207031" />
  <path d="M 2864.804688 1041.354687 L 2810.117188 1062.01875 L 2828.164063 1041.354687 L 2810.117188 1020.729687 Z M 2864.804688 1041.354687" transform="matrix(.1 0 0 -.1 0 269.28)" fill="none" stroke-width="7.97" stroke="#000" stroke-miterlimit="10" />
  <path d="M 295.214844 164.453125 L 295.179688 164.453125 L 295.046875 163.886719 C 294.890625 163.285156 294.679688 162.792969 294.410156 162.480469 L 294.242188 162.480469 L 292.691406 162.660156 L 292.691406 162.992188 C 292.691406 162.992188 292.859375 162.960938 293.039063 162.960938 C 293.773438 162.949219 293.964844 163.25 294.265625 164.1875 L 294.578125 165.203125 L 293.773438 166.375 C 293.339844 167 293.140625 167.011719 293.09375 167.011719 C 292.90625 167.011719 292.636719 166.867188 292.390625 166.867188 C 292.121094 166.867188 291.957031 167.109375 291.957031 167.332031 C 291.957031 167.613281 292.121094 167.878906 292.601563 167.878906 C 293.273438 167.878906 293.640625 167.355469 293.996094 166.773438 L 294.714844 165.617188 L 294.757813 165.617188 L 295.035156 166.742188 C 295.191406 167.46875 295.4375 167.890625 295.949219 167.890625 C 296.710938 167.890625 297.179688 167.132813 297.503906 166.640625 L 297.265625 166.464844 C 296.964844 166.867188 296.753906 167.089844 296.464844 167.089844 C 296.117188 167.089844 295.894531 166.675781 295.582031 165.648438 L 295.347656 164.890625 L 296.027344 163.808594 C 296.21875 163.496094 296.375 163.339844 296.632813 163.339844 C 296.777344 163.339844 297.03125 163.453125 297.210938 163.453125 C 297.511719 163.453125 297.726563 163.195313 297.726563 162.925781 C 297.726563 162.613281 297.589844 162.4375 297.167969 162.4375 C 296.507813 162.4375 296.0625 162.984375 295.761719 163.519531 L 295.214844 164.453125" />
  <path d="M 1500.078125 123.971875 L 1500.078125 2367.4875" transform="matrix(.1 0 0 -.1 0 269.28)" fill="none" stroke-width="7.97" stroke-linejoin="round" stroke="#000" stroke-miterlimit="10" />
  <path d="M 150.007813 28.667969 L 147.941406 34.136719 L 150.007813 32.332031 L 152.070313 34.136719" />
  <path d="M 1500.078125 2406.120312 L 1479.414063 2351.432812 L 1500.078125 2369.479687 L 1520.703125 2351.432812 Z M 1500.078125 2406.120312" transform="matrix(.1 0 0 -.1 0 269.28)" fill="none" stroke-width="7.97" stroke="#000" stroke-miterlimit="10" />
  <path d="M 149.898438 17.554688 C 149.765625 16.660156 149.6875 16.304688 149.441406 15.878906 L 149.273438 15.878906 L 147.691406 16.003906 L 147.691406 16.328125 C 147.691406 16.328125 147.925781 16.304688 148.082031 16.304688 C 148.761719 16.304688 148.820313 16.851563 148.898438 17.351563 L 149.554688 21.28125 C 149.242188 21.761719 148.4375 22.820313 148.226563 22.820313 C 147.980469 22.820313 147.859375 22.226563 147.433594 22.226563 C 147.179688 22.226563 147 22.375 147 22.707031 C 147 23.121094 147.390625 23.433594 147.859375 23.433594 C 148.707031 23.433594 149.488281 22.171875 150.324219 21.011719 C 150.90625 20.210938 151.539063 19.25 152.140625 18.1875 C 152.5 17.589844 152.632813 17.085938 152.632813 16.648438 C 152.632813 16.171875 152.34375 15.800781 151.929688 15.800781 C 151.609375 15.800781 151.4375 16.003906 151.4375 16.238281 C 151.4375 16.660156 151.984375 16.972656 151.984375 17.265625 C 151.984375 17.53125 151.886719 17.800781 151.617188 18.234375 L 150.335938 20.300781 L 150.269531 20.300781 L 150.167969 19.183594 L 149.898438 17.554688" />
  <path d="M 1530.078125 1500.065625 L 1470.039063 1500.065625" transform="matrix(.1 0 0 -.1 0 269.28)" fill="none" stroke-width="7.97" stroke-linejoin="round" stroke="#000" stroke-miterlimit="10" />
  <path d="M 142.054688 122.878906 L 142.054688 122.566406 C 141.027344 122.566406 140.613281 122.367188 140.613281 121.820313 L 140.613281 115.753906 L 140.289063 115.753906 L 138.125 116.363281 L 138.125 116.734375 C 138.472656 116.621094 139.039063 116.554688 139.265625 116.554688 C 139.542969 116.554688 139.632813 116.710938 139.632813 117.101563 L 139.632813 121.820313 C 139.632813 122.378906 139.242188 122.566406 138.191406 122.566406 L 138.191406 122.878906 L 142.054688 122.878906" />
  <path d="M 1530.078125 1958.776562 L 1470.039063 1958.776562" transform="matrix(.1 0 0 -.1 0 269.28)" fill="none" stroke-width="7.97" stroke-linejoin="round" stroke="#000" stroke-miterlimit="10" />
  <path d="M 142.476563 75.195313 L 142.152344 75.195313 C 141.898438 75.863281 141.753906 76.097656 141.160156 76.097656 L 139.609375 76.097656 L 138.828125 76.132813 L 138.828125 76.078125 L 140.300781 74.683594 C 141.484375 73.488281 142.117188 72.71875 142.117188 71.726563 C 142.117188 70.554688 141.238281 69.796875 139.976563 69.796875 C 138.894531 69.796875 138.136719 70.421875 137.789063 71.503906 L 138.058594 71.613281 C 138.472656 70.777344 138.964844 70.519531 139.6875 70.519531 C 140.546875 70.519531 141.082031 71.058594 141.082031 71.890625 C 141.082031 73.0625 140.523438 73.765625 139.421875 74.90625 L 137.722656 76.601563 L 137.722656 76.980469 L 142.117188 76.980469 L 142.476563 75.195313" />
  <path d="M 1500.078125 1041.354687 L 1500.078125 1424.323437" transform="matrix(.1 0 0 -.1 0 269.28)" fill="none" stroke-width="15.94" stroke-linejoin="round" stroke="#55a4e0" stroke-miterlimit="10" />
  <path d="M 150.007813 121.542969 L 147.222656 128.894531 L 150.007813 126.449219 L 152.789063 128.894531" fill="#55a4e0" />
  <path d="M 1500.078125 1477.370312 L 1472.226563 1403.854687 L 1500.078125 1428.307812 L 1527.890625 1403.854687 Z M 1500.078125 1477.370312" transform="matrix(.1 0 0 -.1 0 269.28)" fill="none" stroke-width="15.94" stroke="#55a4e0" stroke-miterlimit="10" />
  <path d="M145.886719 137.003906L145.886719 136.8125 144.257813 135.273438 144.070313 135.5 144.414063 135.898438C144.570313 136.089844 144.671875 136.179688 144.671875 136.335938 144.671875 136.457031 144.582031 136.480469 144.414063 136.480469L140.992188 136.480469 140.992188 137.003906 145.886719 137.003906M142.988281 146.234375C142.863281 146.902344 142.476563 148.855469 141.90625 148.855469 141.46875 148.855469 141.78125 147.875 141.15625 147.875 140.84375 147.875 140.710938 148.152344 140.710938 148.386719 140.710938 148.808594 141.003906 149.222656 141.714844 149.222656 143.242188 149.222656 143.78125 146.867188 143.992188 145.800781L144.773438 141.46875 144.527344 141.46875 142.964844 141.59375 142.964844 141.894531C142.964844 141.894531 143.15625 141.871094 143.34375 141.871094 143.644531 141.871094 143.703125 142.050781 143.703125 142.195313 143.703125 142.386719 143.667969 142.539063 143.667969 142.539063zM145.0625 139.976563C145.0625 139.617188 144.816406 139.359375 144.449219 139.359375 144.082031 139.359375 143.859375 139.597656 143.859375 139.976563 143.859375 140.363281 144.082031 140.566406 144.449219 140.566406 144.816406 140.566406 145.0625 140.351563 145.0625 139.976563" fill="#55a4e0" />
  <path d="M 1500.078125 1500.065625 L 1500.078125 1883.034375" transform="matrix(.1 0 0 -.1 0 269.28)" fill="none" stroke-width="15.94" stroke-linejoin="round" stroke="#55a4e0" stroke-miterlimit="10" />
  <path d="M 150.007813 75.671875 L 147.222656 83.023438 L 150.007813 80.578125 L 152.789063 83.023438" fill="#55a4e0" />
  <path d="M 1500.078125 1936.08125 L 1472.226563 1862.565625 L 1500.078125 1887.01875 L 1527.890625 1862.565625 Z M 1500.078125 1936.08125" transform="matrix(.1 0 0 -.1 0 269.28)" fill="none" stroke-width="15.94" stroke="#55a4e0" stroke-miterlimit="10" />
  <path d="M145.886719 91.105469L145.886719 90.914063 144.257813 89.375 144.070313 89.597656 144.414063 90C144.570313 90.1875 144.671875 90.277344 144.671875 90.433594 144.671875 90.558594 144.582031 90.578125 144.414063 90.578125L140.992188 90.578125 140.992188 91.105469 145.886719 91.105469M142.988281 100.332031C142.863281 101.003906 142.476563 102.953125 141.90625 102.953125 141.46875 102.953125 141.78125 101.972656 141.15625 101.972656 140.84375 101.972656 140.710938 102.253906 140.710938 102.484375 140.710938 102.910156 141.003906 103.324219 141.714844 103.324219 143.242188 103.324219 143.78125 100.96875 143.992188 99.898438L144.773438 95.570313 144.527344 95.570313 142.964844 95.691406 142.964844 95.992188C142.964844 95.992188 143.15625 95.972656 143.34375 95.972656 143.644531 95.972656 143.703125 96.148438 143.703125 96.292969 143.703125 96.484375 143.667969 96.640625 143.667969 96.640625zM145.0625 94.074219C145.0625 93.71875 144.816406 93.460938 144.449219 93.460938 144.082031 93.460938 143.859375 93.695313 143.859375 94.074219 143.859375 94.464844 144.082031 94.664063 144.449219 94.664063 144.816406 94.664063 145.0625 94.453125 145.0625 94.074219" fill="#55a4e0" />
  <path d="M 1500.078125 1041.354687 L 1500.078125 1895.885937" transform="matrix(.1 0 0 -.1 0 269.28)" fill="none" stroke-width="11.955" stroke-linejoin="round" stroke="#e14b3b" stroke-miterlimit="10" />
  <path d="M 150.007813 75.105469 L 147.582031 81.515625 L 150.007813 79.390625 L 152.429688 81.515625" fill="#e14b3b" />
  <path d="M 1500.078125 1941.745312 L 1475.820313 1877.64375 L 1500.078125 1898.89375 L 1524.296875 1877.64375 Z M 1500.078125 1941.745312" transform="matrix(.1 0 0 -.1 0 269.28)" fill="none" stroke-width="11.955" stroke="#e14b3b" stroke-miterlimit="10" />
  <path d="M163.886719 115.304688L163.886719 115.113281 162.257813 113.574219 162.070313 113.800781 162.414063 114.199219C162.570313 114.390625 162.671875 114.476563 162.671875 114.636719 162.671875 114.757813 162.582031 114.78125 162.414063 114.78125L158.992188 114.78125 158.992188 115.304688 163.886719 115.304688M163.519531 124.980469L163.589844 124.644531C162.917969 124.644531 162.726563 124.398438 162.617188 123.652344L161.734375 117.605469 161.265625 117.605469 157.40625 123.195313C156.570313 124.46875 156.359375 124.644531 155.742188 124.644531L155.664063 124.980469 157.996094 124.980469 158.078125 124.644531C157.585938 124.644531 157.429688 124.578125 157.429688 124.34375 157.429688 124.132813 157.5625 123.941406 157.707031 123.71875L158.488281 122.535156 161.367188 122.535156 161.476563 123.539063C161.488281 123.675781 161.503906 123.832031 161.503906 124.011719 161.503906 124.566406 161.15625 124.644531 160.609375 124.644531L160.542969 124.980469zM161.320313 122.089844L158.757813 122.089844 160.921875 118.867188 160.953125 118.867188 161.320313 122.089844" fill="#e14b3b" />
</svg>