<svg width="418.333" height="359.04" viewBox="0 0 313.75 269.28" class="displayed_equation" xmlns="http://www.w3.org/2000/svg">
  <path d="M 123.984375 123.971875 L 2876.132813 123.971875 M 123.984375 582.682812 L 2876.132813 582.682812 M 123.984375 1041.354687 L 2876.132813 1041.354687 M 123.984375 1500.065625 L 2876.132813 1500.065625 M 123.984375 1958.776562 L 2876.132813 1958.776562 M 123.984375 2417.292187 L 2876.132813 2417.292187 M 123.984375 123.971875 L 123.984375 2417.448437 M 582.65625 123.971875 L 582.65625 2417.448437 M 1041.367188 123.971875 L 1041.367188 2417.448437 M 1500.078125 123.971875 L 1500.078125 2417.448437 M 1958.75 123.971875 L 1958.75 2417.448437 M 2417.460938 123.971875 L 2417.460938 2417.448437 M 2875.976563 123.971875 L 2875.976563 2417.448437" transform="matrix(.1 0 0 -.1 0 269.28)" fill="none" stroke-width="3.985" stroke-linejoin="round" stroke="#a5a5a6" stroke-miterlimit="10" />
  <path d="M 123.984375 1041.354687 L 2826.171875 1041.354687" transform="matrix(.1 0 0 -.1 0 269.28)" fill="none" stroke-width="7.97" stroke-linejoin="round" stroke="#000" stroke-miterlimit="10" />
  <path d="M 286.480469 165.144531 L 281.011719 163.078125 L 282.816406 165.144531 L 281.011719 167.207031" />
  <path d="M 2864.804688 1041.354687 L 2810.117188 1062.01875 L 2828.164063 1041.354687 L 2810.117188 1020.729687 Z M 2864.804688 1041.354687" transform="matrix(.1 0 0 -.1 0 269.28)" fill="none" stroke-width="7.97" stroke="#000" stroke-miterlimit="10" />
  <path d="M 295.214844 164.453125 L 295.179688 164.453125 L 295.046875 163.886719 C 294.890625 163.285156 294.679688 162.792969 294.410156 162.480469 L 294.242188 162.480469 L 292.691406 162.660156 L 292.691406 162.992188 C 292.691406 162.992188 292.859375 162.960938 293.039063 162.960938 C 293.773438 162.949219 293.964844 163.25 294.265625 164.1875 L 294.578125 165.203125 L 293.773438 166.375 C 293.339844 167 293.140625 167.011719 293.09375 167.011719 C 292.90625 167.011719 292.636719 166.867188 292.390625 166.867188 C 292.121094 166.867188 291.957031 167.109375 291.957031 167.332031 C 291.957031 167.613281 292.121094 167.878906 292.601563 167.878906 C 293.273438 167.878906 293.640625 167.355469 293.996094 166.773438 L 294.714844 165.617188 L 294.757813 165.617188 L 295.035156 166.742188 C 295.191406 167.46875 295.4375 167.890625 295.949219 167.890625 C 296.710938 167.890625 297.179688 167.132813 297.503906 166.640625 L 297.265625 166.464844 C 296.964844 166.867188 296.753906 167.089844 296.464844 167.089844 C 296.117188 167.089844 295.894531 166.675781 295.582031 165.648438 L 295.347656 164.890625 L 296.027344 163.808594 C 296.21875 163.496094 296.375 163.339844 296.632813 163.339844 C 296.777344 163.339844 297.03125 163.453125 297.210938 163.453125 C 297.511719 163.453125 297.726563 163.195313 297.726563 162.925781 C 297.726563 162.613281 297.589844 162.4375 297.167969 162.4375 C 296.507813 162.4375 296.0625 162.984375 295.761719 163.519531 L 295.214844 164.453125" />
  <path d="M 1500.078125 123.971875 L 1500.078125 2367.4875" transform="matrix(.1 0 0 -.1 0 269.28)" fill="none" stroke-width="7.97" stroke-linejoin="round" stroke="#000" stroke-miterlimit="10" />
  <path d="M 150.007813 28.667969 L 147.941406 34.136719 L 150.007813 32.332031 L 152.070313 34.136719" />
  <path d="M 1500.078125 2406.120312 L 1479.414063 2351.432812 L 1500.078125 2369.479687 L 1520.703125 2351.432812 Z M 1500.078125 2406.120312" transform="matrix(.1 0 0 -.1 0 269.28)" fill="none" stroke-width="7.97" stroke="#000" stroke-miterlimit="10" />
  <path d="M 149.898438 17.554688 C 149.765625 16.660156 149.6875 16.304688 149.441406 15.878906 L 149.273438 15.878906 L 147.691406 16.003906 L 147.691406 16.328125 C 147.691406 16.328125 147.925781 16.304688 148.082031 16.304688 C 148.761719 16.304688 148.820313 16.851563 148.898438 17.351563 L 149.554688 21.28125 C 149.242188 21.761719 148.4375 22.820313 148.226563 22.820313 C 147.980469 22.820313 147.859375 22.226563 147.433594 22.226563 C 147.179688 22.226563 147 22.375 147 22.707031 C 147 23.121094 147.390625 23.433594 147.859375 23.433594 C 148.707031 23.433594 149.488281 22.171875 150.324219 21.011719 C 150.90625 20.210938 151.539063 19.25 152.140625 18.1875 C 152.5 17.589844 152.632813 17.085938 152.632813 16.648438 C 152.632813 16.171875 152.34375 15.800781 151.929688 15.800781 C 151.609375 15.800781 151.4375 16.003906 151.4375 16.238281 C 151.4375 16.660156 151.984375 16.972656 151.984375 17.265625 C 151.984375 17.53125 151.886719 17.800781 151.617188 18.234375 L 150.335938 20.300781 L 150.269531 20.300781 L 150.167969 19.183594 L 149.898438 17.554688" />
  <path d="M 1958.75 1071.39375 L 1958.75 1011.354687" transform="matrix(.1 0 0 -.1 0 269.28)" fill="none" stroke-width="7.97" stroke-linejoin="round" stroke="#000" stroke-miterlimit="10" />
  <path d="M 197.851563 179.480469 L 197.851563 179.167969 C 196.828125 179.167969 196.414063 178.96875 196.414063 178.421875 L 196.414063 172.351563 L 196.089844 172.351563 L 193.925781 172.964844 L 193.925781 173.332031 C 194.273438 173.21875 194.839844 173.15625 195.0625 173.15625 C 195.34375 173.15625 195.429688 173.3125 195.429688 173.699219 L 195.429688 178.421875 C 195.429688 178.976563 195.039063 179.167969 193.992188 179.167969 L 193.992188 179.480469 L 197.851563 179.480469" />
  <path d="M 1530.078125 1500.065625 L 1470.039063 1500.065625" transform="matrix(.1 0 0 -.1 0 269.28)" fill="none" stroke-width="7.97" stroke-linejoin="round" stroke="#000" stroke-miterlimit="10" />
  <path d="M 142.054688 122.878906 L 142.054688 122.566406 C 141.027344 122.566406 140.613281 122.367188 140.613281 121.820313 L 140.613281 115.753906 L 140.289063 115.753906 L 138.125 116.363281 L 138.125 116.734375 C 138.472656 116.621094 139.039063 116.554688 139.265625 116.554688 C 139.542969 116.554688 139.632813 116.710938 139.632813 117.101563 L 139.632813 121.820313 C 139.632813 122.378906 139.242188 122.566406 138.191406 122.566406 L 138.191406 122.878906 L 142.054688 122.878906" />
  <path d="M 1500.078125 1041.354687 L 1895.898438 1041.354687" transform="matrix(.1 0 0 -.1 0 269.28)" fill="none" stroke-width="11.955" stroke-linejoin="round" stroke="#e14b3b" stroke-miterlimit="10" />
  <path d="M 194.171875 165.144531 L 187.765625 162.71875 L 189.886719 165.144531 L 187.765625 167.566406" fill="#e14b3b" />
  <path d="M 1941.71875 1041.354687 L 1877.65625 1065.6125 L 1898.867188 1041.354687 L 1877.65625 1017.135937 Z M 1941.71875 1041.354687" transform="matrix(.1 0 0 -.1 0 269.28)" fill="none" stroke-width="11.955" stroke="#e14b3b" stroke-miterlimit="10" />
  <path d="M175.6875 171.203125L175.6875 171.015625 174.058594 169.476563 173.871094 169.699219 174.214844 170.101563C174.371094 170.289063 174.472656 170.378906 174.472656 170.535156 174.472656 170.65625 174.382813 170.679688 174.214844 170.679688L170.789063 170.679688 170.789063 171.203125 175.6875 171.203125M174.109375 174.175781C174.109375 173.816406 173.878906 173.5625 173.507813 173.5625 173.152344 173.5625 172.917969 173.796875 172.917969 174.175781 172.917969 174.5625 173.152344 174.765625 173.507813 174.765625 173.878906 174.765625 174.109375 174.554688 174.109375 174.175781zM173.84375 175.667969L173.597656 175.667969 172.035156 175.792969 172.035156 176.09375C172.035156 176.09375 172.226563 176.070313 172.414063 176.070313 172.71875 176.070313 172.773438 176.25 172.773438 176.394531 172.773438 176.585938 172.738281 176.742188 172.738281 176.742188L172.171875 179.394531C172.023438 180.054688 171.980469 180.296875 171.980469 180.488281 171.980469 180.878906 172.238281 181.078125 172.683594 181.078125 173.417969 181.078125 173.855469 180.453125 174.246094 179.910156L174.023438 179.742188C173.84375 179.941406 173.542969 180.320313 173.164063 180.320313 173.027344 180.320313 172.964844 180.253906 172.964844 180.109375 172.964844 179.953125 173.015625 179.640625 173.015625 179.640625L173.84375 175.667969" />
  <path d="M 1500.078125 1041.354687 L 1500.078125 1437.214062" transform="matrix(.1 0 0 -.1 0 269.28)" fill="none" stroke-width="11.955" stroke-linejoin="round" stroke="#e14b3b" stroke-miterlimit="10" />
  <path d="M 150.007813 120.976563 L 147.582031 127.386719 L 150.007813 125.261719 L 152.429688 127.386719" fill="#e14b3b" />
  <path d="M 1500.078125 1483.034375 L 1475.820313 1418.932812 L 1500.078125 1440.182812 L 1524.296875 1418.932812 Z M 1500.078125 1483.034375" transform="matrix(.1 0 0 -.1 0 269.28)" fill="none" stroke-width="11.955" stroke="#e14b3b" stroke-miterlimit="10" />
  <path d="M146.089844 137.003906L146.089844 136.8125 144.460938 135.273438 144.269531 135.5 144.617188 135.898438C144.773438 136.089844 144.871094 136.179688 144.871094 136.335938 144.871094 136.457031 144.78125 136.480469 144.617188 136.480469L141.191406 136.480469 141.191406 137.003906 146.089844 137.003906M143.1875 146.234375C143.0625 146.902344 142.675781 148.855469 142.105469 148.855469 141.671875 148.855469 141.984375 147.875 141.359375 147.875 141.046875 147.875 140.910156 148.152344 140.910156 148.386719 140.910156 148.808594 141.203125 149.222656 141.914063 149.222656 143.445313 149.222656 143.980469 146.867188 144.191406 145.800781L144.972656 141.46875 144.726563 141.46875 143.164063 141.59375 143.164063 141.894531C143.164063 141.894531 143.355469 141.871094 143.542969 141.871094 143.84375 141.871094 143.902344 142.050781 143.902344 142.195313 143.902344 142.386719 143.867188 142.539063 143.867188 142.539063zM145.261719 139.976563C145.261719 139.617188 145.015625 139.359375 144.648438 139.359375 144.28125 139.359375 144.058594 139.597656 144.058594 139.976563 144.058594 140.363281 144.28125 140.566406 144.648438 140.566406 145.015625 140.566406 145.261719 140.351563 145.261719 139.976563" />
</svg>